# xmcd CD database file generated by Grip 3.2.0
# 
# Track frame offsets:
#       182
#       17362
#       33825
#       51717
# 
# Disc length: 941 seconds
# 
# Revision: 1
# Processed by: cddbd v1.5.1PL2 Copyright (c) Steve Scherf et al.
# Submitted via: Grip 3.2.0
# 
DISCID=2903ab04
DTITLE=Ronnie Spector - She Talks To Rainbows
DYEAR=1999
DGENRE=Pop
TTITLE0=She talks to rainbows
TTITLE1=Don't worry baby
TTITLE2=You can't put your arms around a memory
TTITLE3=Bye bye baby
EXTD=
EXTT0=
EXTT1=
EXTT2=
EXTT3=
PLAYORDER=
